# xmcd
#
# Track frame offsets:
#	150
#	20863
#	34634
#	49368
#	72210
#	89355
#	103966
#	118947
#	137055
#	160778
#	177888
#	196624
#
# Disc length: 2929 seconds
#
# Revision: 0
# Processed by: cddbd v1.5.2PL0 Copyright (c) Steve Scherf et al.
# Submitted via: audiograbber 1.83.01
#
DISCID=a70b6f0c
DTITLE=CD Pool - Urban March 2011 CD1
DYEAR=2011
DGENRE=R&B
TTITLE0=Wiz Khalifa Ft Snoop Dogg, Juicy J and T-Pain - Black and Yellow (Explicit 
TTITLE0=Remix)
TTITLE1=Wretch 32 Ft Example - Unorthodox (Radio Edit)
TTITLE2=Baby Blue Ft J2 K, Ghetts and Scru Fizzer - Paper Haters (Part 2)(Clean V
TTITLE2=ersion)
TTITLE3=Haynzy Ft Frisco - Sorry (Major Notes Remix)
TTITLE4=Ke$ha Ft Andre 3000 - Sleazy (Remix)
TTITLE5=Sly - Back To The Money (Original Mix)
TTITLE6=T.R.A.C. Ft Baron Aka Drue Davis - Step Rite On In
TTITLE7=Sean-Toure Ft Kev Brown - A Day In The Life (Main Mix)
TTITLE8=Drizabone Soul Family - Slow Luv (All Through The Night)(Family Remix)
TTITLE9=Mint Condition - Caught My Eye
TTITLE10=DJ Jazzy Jeff Ft Raheem DeVaughn - My Peoples
TTITLE11=Marley Marl Ft Roy Ayers and Edwin Birdsong - Hummin' (Main Mix)
EXTD=
EXTT0=
EXTT1=
EXTT2=
EXTT3=
EXTT4=
EXTT5=
EXTT6=
EXTT7=
EXTT8=
EXTT9=
EXTT10=
EXTT11=
PLAYORDER=
